<mxfile host="app.diagrams.net" modified="2023-03-13T23:28:58.342Z" agent="5.0 (Macintosh; Intel Mac OS X 10_15_7) AppleWebKit/537.36 (KHTML, like Gecko) Chrome/111.0.0.0 Safari/537.36" etag="gGdCtRoAhuChoR4mZ9Dh" version="20.8.20" type="github">
  <diagram name="Page-1" id="peoEXKKkSshNWl6Lv4T5">
    <mxGraphModel dx="787" dy="510" grid="1" gridSize="10" guides="1" tooltips="1" connect="1" arrows="1" fold="1" page="1" pageScale="1" pageWidth="827" pageHeight="1169" math="0" shadow="0">
      <root>
        <mxCell id="0" />
        <mxCell id="1" parent="0" />
        <mxCell id="s8iCkAIOPCFulTm78Inb-2" value="Profile&amp;nbsp; Table&lt;br&gt;" style="html=1;dashed=0;whitespace=wrap;shape=partialRectangle;right=0;left=0;fontSize=8;fillColor=#e1d5e7;strokeColor=#9673a6;" vertex="1" parent="1">
          <mxGeometry x="485" y="270" width="100" height="30" as="geometry" />
        </mxCell>
        <mxCell id="s8iCkAIOPCFulTm78Inb-3" value="User" style="html=1;dashed=0;whitespace=wrap;fontSize=12;fillColor=#f5f5f5;fontColor=#333333;strokeColor=#666666;" vertex="1" parent="1">
          <mxGeometry x="90" y="435" width="70" height="25" as="geometry" />
        </mxCell>
        <mxCell id="s8iCkAIOPCFulTm78Inb-4" value="&lt;font style=&quot;font-size: 9px;&quot;&gt;creates profile&lt;br&gt;(device)&lt;/font&gt;" style="shape=ellipse;html=1;dashed=0;whitespace=wrap;aspect=fixed;perimeter=ellipsePerimeter;fontSize=12;fillColor=#fff2cc;strokeColor=#d6b656;" vertex="1" parent="1">
          <mxGeometry x="310" y="250" width="70" height="70" as="geometry" />
        </mxCell>
        <mxCell id="s8iCkAIOPCFulTm78Inb-5" value="Profile&lt;br&gt;" style="html=1;dashed=0;whitespace=wrap;fontSize=9;fillColor=#f5f5f5;fontColor=#333333;strokeColor=#666666;" vertex="1" parent="1">
          <mxGeometry x="500" y="360" width="70" height="20" as="geometry" />
        </mxCell>
        <mxCell id="s8iCkAIOPCFulTm78Inb-6" value="&lt;font style=&quot;font-size: 9px;&quot;&gt;&lt;br&gt;install app&lt;br&gt;&lt;br&gt;&lt;/font&gt;" style="shape=ellipse;html=1;dashed=0;whitespace=wrap;aspect=fixed;perimeter=ellipsePerimeter;fontSize=12;fillColor=#fff2cc;strokeColor=#d6b656;" vertex="1" parent="1">
          <mxGeometry x="320" y="415" width="60" height="60" as="geometry" />
        </mxCell>
        <mxCell id="s8iCkAIOPCFulTm78Inb-7" value="Application Table" style="html=1;dashed=0;whitespace=wrap;shape=partialRectangle;right=0;left=0;fontSize=9;fillColor=#d5e8d4;strokeColor=#82b366;" vertex="1" parent="1">
          <mxGeometry x="651" y="430" width="100" height="30" as="geometry" />
        </mxCell>
        <mxCell id="s8iCkAIOPCFulTm78Inb-8" value="User App Catalogue" style="html=1;dashed=0;whitespace=wrap;shape=partialRectangle;right=0;left=0;fontSize=9;fillColor=#e1d5e7;strokeColor=#9673a6;" vertex="1" parent="1">
          <mxGeometry x="485" y="430" width="100" height="30" as="geometry" />
        </mxCell>
        <mxCell id="s8iCkAIOPCFulTm78Inb-10" value="Search&lt;br&gt;in app store" style="endArrow=classic;html=1;fontSize=8;curved=1;exitX=1;exitY=0.5;exitDx=0;exitDy=0;entryX=0;entryY=0.5;entryDx=0;entryDy=0;" edge="1" parent="1" source="s8iCkAIOPCFulTm78Inb-3" target="s8iCkAIOPCFulTm78Inb-6">
          <mxGeometry relative="1" as="geometry">
            <mxPoint x="140" y="604.6" as="sourcePoint" />
            <mxPoint x="240" y="604.6" as="targetPoint" />
          </mxGeometry>
        </mxCell>
        <mxCell id="s8iCkAIOPCFulTm78Inb-11" value="Login / Sign up" style="endArrow=classic;html=1;fontSize=8;curved=1;exitX=0.5;exitY=0;exitDx=0;exitDy=0;entryX=0;entryY=0.5;entryDx=0;entryDy=0;" edge="1" parent="1" source="s8iCkAIOPCFulTm78Inb-3" target="s8iCkAIOPCFulTm78Inb-4">
          <mxGeometry x="-0.002" relative="1" as="geometry">
            <mxPoint x="170" y="465" as="sourcePoint" />
            <mxPoint x="330" y="455" as="targetPoint" />
            <mxPoint as="offset" />
          </mxGeometry>
        </mxCell>
        <mxCell id="s8iCkAIOPCFulTm78Inb-12" value="" style="endArrow=classic;html=1;fontSize=8;curved=1;exitX=1;exitY=0.5;exitDx=0;exitDy=0;entryX=0;entryY=0.5;entryDx=0;entryDy=0;" edge="1" parent="1" source="s8iCkAIOPCFulTm78Inb-4" target="s8iCkAIOPCFulTm78Inb-2">
          <mxGeometry relative="1" as="geometry">
            <mxPoint x="390" y="240" as="sourcePoint" />
            <mxPoint x="490" y="240" as="targetPoint" />
          </mxGeometry>
        </mxCell>
        <mxCell id="s8iCkAIOPCFulTm78Inb-13" value="Stores data" style="edgeLabel;resizable=0;html=1;align=center;verticalAlign=middle;fontSize=8;fillColor=#FFFFFF;" connectable="0" vertex="1" parent="s8iCkAIOPCFulTm78Inb-12">
          <mxGeometry relative="1" as="geometry" />
        </mxCell>
        <mxCell id="s8iCkAIOPCFulTm78Inb-14" value="" style="endArrow=classic;html=1;fontSize=8;curved=1;exitX=0.5;exitY=1;exitDx=0;exitDy=0;entryX=0.5;entryY=0;entryDx=0;entryDy=0;" edge="1" parent="1" source="s8iCkAIOPCFulTm78Inb-2" target="s8iCkAIOPCFulTm78Inb-5">
          <mxGeometry relative="1" as="geometry">
            <mxPoint x="585" y="320" as="sourcePoint" />
            <mxPoint x="685" y="320" as="targetPoint" />
          </mxGeometry>
        </mxCell>
        <mxCell id="s8iCkAIOPCFulTm78Inb-15" value="Profile details" style="edgeLabel;resizable=0;html=1;align=center;verticalAlign=middle;fontSize=8;fillColor=#FFFFFF;" connectable="0" vertex="1" parent="s8iCkAIOPCFulTm78Inb-14">
          <mxGeometry relative="1" as="geometry" />
        </mxCell>
        <mxCell id="s8iCkAIOPCFulTm78Inb-16" value="" style="endArrow=classic;html=1;fontSize=8;curved=1;exitX=0.5;exitY=1;exitDx=0;exitDy=0;entryX=0.5;entryY=0;entryDx=0;entryDy=0;" edge="1" parent="1" source="s8iCkAIOPCFulTm78Inb-5" target="s8iCkAIOPCFulTm78Inb-8">
          <mxGeometry relative="1" as="geometry">
            <mxPoint x="534.6" y="375" as="sourcePoint" />
            <mxPoint x="534.6" y="435" as="targetPoint" />
          </mxGeometry>
        </mxCell>
        <mxCell id="s8iCkAIOPCFulTm78Inb-17" value="contains&amp;nbsp;" style="edgeLabel;resizable=0;html=1;align=center;verticalAlign=middle;fontSize=8;fillColor=#FFFFFF;" connectable="0" vertex="1" parent="s8iCkAIOPCFulTm78Inb-16">
          <mxGeometry relative="1" as="geometry">
            <mxPoint as="offset" />
          </mxGeometry>
        </mxCell>
        <mxCell id="s8iCkAIOPCFulTm78Inb-18" value="" style="endArrow=classic;html=1;fontSize=8;curved=1;exitX=0;exitY=0.5;exitDx=0;exitDy=0;entryX=1;entryY=0.5;entryDx=0;entryDy=0;" edge="1" parent="1" source="s8iCkAIOPCFulTm78Inb-7" target="s8iCkAIOPCFulTm78Inb-8">
          <mxGeometry relative="1" as="geometry">
            <mxPoint x="600" y="380" as="sourcePoint" />
            <mxPoint x="700" y="380" as="targetPoint" />
          </mxGeometry>
        </mxCell>
        <mxCell id="s8iCkAIOPCFulTm78Inb-19" value="app details" style="edgeLabel;resizable=0;html=1;align=center;verticalAlign=middle;fontSize=8;fillColor=#FFFFFF;" connectable="0" vertex="1" parent="s8iCkAIOPCFulTm78Inb-18">
          <mxGeometry relative="1" as="geometry">
            <mxPoint x="-2" as="offset" />
          </mxGeometry>
        </mxCell>
        <mxCell id="s8iCkAIOPCFulTm78Inb-20" value="" style="endArrow=classic;html=1;rounded=0;exitX=1;exitY=0.5;exitDx=0;exitDy=0;entryX=0;entryY=0.5;entryDx=0;entryDy=0;fontSize=9;" edge="1" parent="1" source="s8iCkAIOPCFulTm78Inb-6" target="s8iCkAIOPCFulTm78Inb-8">
          <mxGeometry relative="1" as="geometry">
            <mxPoint x="390" y="480" as="sourcePoint" />
            <mxPoint x="490" y="480" as="targetPoint" />
            <Array as="points">
              <mxPoint x="430" y="445" />
            </Array>
          </mxGeometry>
        </mxCell>
        <mxCell id="s8iCkAIOPCFulTm78Inb-21" value="stored in" style="edgeLabel;resizable=0;html=1;align=center;verticalAlign=middle;fontSize=9;" connectable="0" vertex="1" parent="s8iCkAIOPCFulTm78Inb-20">
          <mxGeometry relative="1" as="geometry" />
        </mxCell>
      </root>
    </mxGraphModel>
  </diagram>
</mxfile>
